<svg width="171" height="208" viewBox="0 0 171 208" fill="none" xmlns="http://www.w3.org/2000/svg">
<g filter="url(#filter0_d_132_645)">
<path d="M162.154 168.359V30.7692C162.154 13.7759 148.378 0 131.385 0H96.7693C79.7759 0 66 13.7759 66 30.7692V83.3333C66 100.327 52.2242 114.103 35.2308 114.103H31.3846C14.3913 114.103 0.615417 127.878 0.615417 144.872V168.359C0.615417 185.352 14.3912 199.128 31.3846 199.128H131.385C148.378 199.128 162.154 185.352 162.154 168.359Z" fill="#E97810"/>
<path d="M162.154 168.359V30.7692C162.154 13.7759 148.378 0 131.385 0H96.7693C79.7759 0 66 13.7759 66 30.7692V83.3333C66 100.327 52.2242 114.103 35.2308 114.103H31.3846C14.3913 114.103 0.615417 127.878 0.615417 144.872V168.359C0.615417 185.352 14.3912 199.128 31.3846 199.128H131.385C148.378 199.128 162.154 185.352 162.154 168.359Z" fill="url(#paint0_linear_132_645)"/>
<path d="M21.0625 172.066C20.4598 172.669 20.4598 173.646 21.0625 174.248L30.8846 184.071C31.4873 184.673 32.4645 184.673 33.0673 184.071C33.67 183.468 33.67 182.491 33.0673 181.888L24.3365 173.157L33.0673 164.426C33.67 163.824 33.67 162.846 33.0673 162.244C32.4645 161.641 31.4873 161.641 30.8846 162.244L21.0625 172.066ZM55.8625 132.06H119.619V128.973H55.8625V132.06ZM119.619 171.614H22.1539V174.701H119.619V171.614ZM139.396 151.837C139.396 162.759 130.542 171.614 119.619 171.614V174.701C132.246 174.701 142.483 164.464 142.483 151.837H139.396ZM119.619 132.06C130.542 132.06 139.396 140.914 139.396 151.837H142.483C142.483 139.209 132.246 128.973 119.619 128.973V132.06Z" fill="white"/>
</g>
<defs>
<filter id="filter0_d_132_645" x="0.615417" y="0" width="169.538" height="207.128" filterUnits="userSpaceOnUse" color-interpolation-filters="sRGB">
<feFlood flood-opacity="0" result="BackgroundImageFix"/>
<feColorMatrix in="SourceAlpha" type="matrix" values="0 0 0 0 0 0 0 0 0 0 0 0 0 0 0 0 0 0 127 0" result="hardAlpha"/>
<feOffset dx="8" dy="8"/>
<feComposite in2="hardAlpha" operator="out"/>
<feColorMatrix type="matrix" values="0 0 0 0 0.623529 0 0 0 0 0.309804 0 0 0 0 0.0509804 0 0 0 1 0"/>
<feBlend mode="normal" in2="BackgroundImageFix" result="effect1_dropShadow_132_645"/>
<feBlend mode="normal" in="SourceGraphic" in2="effect1_dropShadow_132_645" result="shape"/>
</filter>
<linearGradient id="paint0_linear_132_645" x1="146.212" y1="12.3204" x2="-14.277" y2="167.041" gradientUnits="userSpaceOnUse">
<stop stop-color="#EA590D"/>
<stop offset="1" stop-color="#FB913B"/>
</linearGradient>
</defs>
</svg>
