<svg width="635" height="206" viewBox="0 0 635 206" fill="none" xmlns="http://www.w3.org/2000/svg">
<path d="M0 30.7692V174.359C0 191.352 13.7759 205.128 30.7693 205.128H535.897C552.891 205.128 566.667 191.352 566.667 174.359V132.051C566.667 115.058 580.443 101.282 597.436 101.282H603.846C620.84 101.282 634.615 87.5062 634.615 70.5128V30.7692C634.615 13.7759 620.84 0 603.846 0H30.7692C13.7759 0 0 13.7758 0 30.7692Z" fill="black"/>
<path d="M44.42 160.898C44.42 162.689 44.8053 164.287 45.576 165.692C46.3693 167.098 47.446 168.208 48.806 169.024C50.166 169.84 51.7073 170.248 53.43 170.248C55.1753 170.248 56.7167 169.84 58.054 169.024C59.414 168.208 60.4793 167.098 61.25 165.692C62.0433 164.287 62.44 162.689 62.44 160.898C62.44 159.108 62.0433 157.51 61.25 156.104C60.4793 154.699 59.414 153.588 58.054 152.772C56.7167 151.956 55.1753 151.548 53.43 151.548C51.7073 151.548 50.166 151.956 48.806 152.772C47.446 153.588 46.3693 154.699 45.576 156.104C44.8053 157.51 44.42 159.108 44.42 160.898ZM41.36 160.898C41.36 159.153 41.6547 157.544 42.244 156.07C42.856 154.574 43.706 153.282 44.794 152.194C45.882 151.084 47.1627 150.222 48.636 149.61C50.1093 148.976 51.7073 148.658 53.43 148.658C55.1753 148.658 56.7733 148.976 58.224 149.61C59.6973 150.222 60.978 151.084 62.066 152.194C63.154 153.282 63.9927 154.574 64.582 156.07C65.194 157.544 65.5 159.153 65.5 160.898C65.5 162.621 65.194 164.23 64.582 165.726C63.9927 167.222 63.154 168.526 62.066 169.636C60.978 170.724 59.6973 171.586 58.224 172.22C56.7733 172.832 55.1753 173.138 53.43 173.138C51.7073 173.138 50.1093 172.832 48.636 172.22C47.1627 171.586 45.882 170.724 44.794 169.636C43.706 168.526 42.856 167.222 42.244 165.726C41.6547 164.23 41.36 162.621 41.36 160.898ZM79.2173 157.158H81.9373V172.798H79.2173V157.158ZM87.7173 157.158H91.1173L84.3173 163.618L91.7973 172.798H88.3973L80.9173 163.618L87.7173 157.158ZM107.161 157.158L96.9613 180.278H93.9013L98.1853 170.588L92.2013 157.158H95.4313L100.395 169.398L99.2733 169.262L104.101 157.158H107.161ZM112.167 180.278H109.447V157.158H112.167V180.278ZM125.257 164.978C125.257 166.656 124.906 168.106 124.203 169.33C123.501 170.554 122.56 171.495 121.381 172.152C120.225 172.81 118.933 173.138 117.505 173.138C116.213 173.138 115.069 172.81 114.071 172.152C113.097 171.495 112.326 170.554 111.759 169.33C111.215 168.106 110.943 166.656 110.943 164.978C110.943 163.278 111.215 161.828 111.759 160.626C112.326 159.402 113.097 158.462 114.071 157.804C115.069 157.147 116.213 156.818 117.505 156.818C118.933 156.818 120.225 157.147 121.381 157.804C122.56 158.462 123.501 159.402 124.203 160.626C124.906 161.828 125.257 163.278 125.257 164.978ZM122.503 164.978C122.503 163.777 122.254 162.757 121.755 161.918C121.279 161.08 120.633 160.445 119.817 160.014C119.024 159.584 118.14 159.368 117.165 159.368C116.372 159.368 115.59 159.584 114.819 160.014C114.049 160.445 113.414 161.08 112.915 161.918C112.417 162.757 112.167 163.777 112.167 164.978C112.167 166.18 112.417 167.2 112.915 168.038C113.414 168.877 114.049 169.512 114.819 169.942C115.59 170.373 116.372 170.588 117.165 170.588C118.14 170.588 119.024 170.373 119.817 169.942C120.633 169.512 121.279 168.877 121.755 168.038C122.254 167.2 122.503 166.18 122.503 164.978ZM130.123 164.978C130.123 166.066 130.35 167.03 130.803 167.868C131.279 168.707 131.914 169.376 132.707 169.874C133.523 170.35 134.441 170.588 135.461 170.588C136.3 170.588 137.082 170.464 137.807 170.214C138.555 169.942 139.201 169.591 139.745 169.16C140.289 168.707 140.675 168.231 140.901 167.732V171.132C140.357 171.767 139.575 172.266 138.555 172.628C137.558 172.968 136.527 173.138 135.461 173.138C133.943 173.138 132.571 172.787 131.347 172.084C130.123 171.382 129.149 170.418 128.423 169.194C127.721 167.948 127.369 166.542 127.369 164.978C127.369 163.392 127.721 161.986 128.423 160.762C129.149 159.538 130.123 158.575 131.347 157.872C132.571 157.17 133.943 156.818 135.461 156.818C136.527 156.818 137.558 157 138.555 157.362C139.575 157.702 140.357 158.19 140.901 158.824V162.224C140.675 161.703 140.289 161.227 139.745 160.796C139.201 160.366 138.555 160.026 137.807 159.776C137.082 159.504 136.3 159.368 135.461 159.368C134.441 159.368 133.523 159.606 132.707 160.082C131.914 160.558 131.279 161.227 130.803 162.088C130.35 162.927 130.123 163.89 130.123 164.978ZM145.401 165.658V163.346H155.839C155.748 162.53 155.521 161.816 155.159 161.204C154.819 160.57 154.331 160.082 153.697 159.742C153.085 159.38 152.325 159.198 151.419 159.198C150.512 159.198 149.685 159.391 148.937 159.776C148.189 160.162 147.588 160.717 147.135 161.442C146.704 162.145 146.489 162.984 146.489 163.958L146.421 164.978C146.421 166.18 146.625 167.2 147.033 168.038C147.441 168.877 148.019 169.512 148.767 169.942C149.515 170.373 150.399 170.588 151.419 170.588C152.189 170.588 152.869 170.475 153.459 170.248C154.071 169.999 154.615 169.67 155.091 169.262C155.567 168.832 155.975 168.333 156.315 167.766L158.525 169.16C158.003 169.954 157.425 170.656 156.791 171.268C156.156 171.858 155.385 172.322 154.479 172.662C153.572 172.98 152.439 173.138 151.079 173.138C149.673 173.138 148.404 172.787 147.271 172.084C146.16 171.382 145.276 170.418 144.619 169.194C143.984 167.948 143.667 166.542 143.667 164.978C143.667 164.684 143.678 164.4 143.701 164.128C143.723 163.856 143.757 163.584 143.803 163.312C144.029 162.02 144.483 160.887 145.163 159.912C145.843 158.938 146.715 158.178 147.781 157.634C148.869 157.09 150.081 156.818 151.419 156.818C152.892 156.818 154.184 157.147 155.295 157.804C156.405 158.462 157.267 159.391 157.879 160.592C158.491 161.771 158.797 163.188 158.797 164.842C158.797 164.978 158.797 165.114 158.797 165.25C158.797 165.386 158.785 165.522 158.763 165.658H145.401Z" fill="#F0F0F0"/>
</svg>
