<svg width="513" height="154" viewBox="0 0 513 154" fill="none" xmlns="http://www.w3.org/2000/svg">
<path d="M0.96904 79.6697C3.68105 100.266 25.8095 111.633 43.0815 119.28C87.5892 138.985 137.644 143.156 185.896 140.27C211.677 138.728 237.296 135.296 262.79 131.331C287.994 127.411 313.179 123.217 338.117 117.889C350.334 115.28 362.486 112.379 374.535 109.103C379.467 107.762 377.651 100.157 372.681 101.508C348.573 108.061 324.064 113.071 299.443 117.396C275.069 121.679 250.59 125.631 226.022 128.693C178.59 134.606 129.66 136.367 82.9679 124.624C71.5914 121.764 60.4124 118.125 49.6078 113.609C40.2173 109.686 30.7903 105.229 22.703 99.0583C15.8541 93.8328 9.66178 86.6066 8.73944 77.8588C7.69092 67.9273 13.599 58.5831 20.9903 52.2917C29.2213 45.2856 39.6299 41.1062 49.6542 37.1865C60.105 33.1006 70.7803 29.5603 81.5827 26.47C103.376 20.2352 125.709 15.9038 148.215 13.0111C193.759 7.15682 239.901 7.21659 285.727 8.95974C309.331 9.85832 332.927 11.1448 356.5 12.6246C381.596 14.1994 406.696 16.2563 431.544 20.1303C443.143 21.9379 454.809 23.9879 466.026 27.4519C476.047 30.5459 486.314 34.8952 494.07 42.0105C500.653 48.0493 506.12 56.736 503.687 65.872C501.172 75.3194 492.603 82.082 484.816 87.488C447.739 113.225 401.805 123.597 357.779 131.432C309.643 139.998 260.782 144.025 211.899 145.23C162.767 146.441 113.61 144.838 64.5564 142.124C52.7027 141.468 40.853 140.745 29.0064 139.984C23.8747 139.653 23.6041 147.455 28.7292 147.784C79.362 151.044 130.077 153.547 180.832 153.434C231.428 153.323 282.094 150.587 332.183 143.425C356.512 139.946 380.776 135.53 404.597 129.549C426.813 123.97 448.799 116.727 469.07 106.124C478.912 100.976 488.689 95.082 497.178 87.9581C505.046 81.3541 511.953 72.5476 512.237 61.9989C512.511 51.8265 506.568 42.51 499.045 35.9159C490.578 28.4965 479.998 23.6628 469.26 20.2662C457.726 16.617 445.706 14.5433 433.765 12.6352C420.953 10.587 408.061 9.03115 395.143 7.78529C369.804 5.34186 344.356 4.00335 318.935 2.67234C271.474 0.187208 223.794 -1.35966 176.356 2.34727C129.493 6.0098 82.7556 14.8218 39.3619 32.9318C29.3316 37.1177 19.1556 42.2279 11.7139 50.2233C4.26523 58.2251 -0.471965 68.7098 0.970784 79.6681L0.96904 79.6697Z" fill="#FB913B"/>
</svg>
