<svg width="38" height="38" viewBox="0 0 38 38" fill="none" xmlns="http://www.w3.org/2000/svg">
<path d="M18.7342 0.65918C23.2775 0.712855 27.319 2.16209 30.7983 5.13376C33.5368 7.47352 35.4284 10.3891 36.4877 13.8536C36.8616 15.0759 37.0933 16.3275 37.2019 17.6011C37.296 18.7112 37.3008 19.8189 37.1922 20.9265C36.823 24.7424 35.4091 28.1166 32.9843 31.059C32.9698 31.0785 32.9505 31.0932 32.9384 31.1151C32.8878 31.2005 32.8371 31.181 32.7768 31.1249C32.6513 31.0102 32.5427 30.8785 32.4438 30.7394C31.7779 29.7952 31.247 28.7754 30.7693 27.7262C30.1902 26.4502 29.7294 25.1303 29.4206 23.7591C29.1793 22.6905 29.0417 21.6097 29.0104 20.5118C28.9983 20.0531 29.119 19.6481 29.3361 19.2577C29.6835 18.6356 30.1323 18.0866 30.5932 17.5474C31.2953 16.7277 32.0529 15.9542 32.7599 15.1369C33.1652 14.6685 33.5633 14.1952 33.8601 13.6438C34.0773 13.2412 34.2003 12.8118 34.1593 12.3458C34.1183 11.9017 33.8505 11.5382 33.4717 11.4357C33.1483 11.3479 32.8612 11.4455 32.6006 11.6383C32.3835 11.7993 32.2266 12.0164 32.0939 12.2506C31.8478 12.68 31.6066 13.1119 31.2953 13.4974C30.8755 14.0195 30.3495 14.4245 29.8307 14.8344C29.3988 15.1735 28.9332 15.4663 28.4241 15.6761C28.2552 15.7444 28.0839 15.7957 27.9029 15.8201C27.4782 15.8786 27.2297 15.6224 27.2973 15.1906C27.3504 14.8563 27.4927 14.5562 27.6471 14.261C27.9777 13.6291 28.3203 13.0045 28.6557 12.3751C28.7715 12.1579 28.8535 11.9286 28.8704 11.6822C28.9139 11.1113 28.5351 10.6867 27.9319 10.6111C27.3624 10.5403 26.8413 10.6794 26.3732 10.9941C25.4032 11.6456 24.7856 12.5556 24.5057 13.695C24.4236 14.0268 24.4936 14.3586 24.6118 14.6758C24.7035 14.9222 24.7952 15.1686 24.8531 15.4272C24.9786 15.9982 24.7976 16.4544 24.385 16.8399C23.7649 17.4181 23.0266 17.7695 22.2256 18.0037C21.4028 18.2452 20.568 18.2428 19.7259 18.1574C19.2651 18.111 18.8114 18.0208 18.3868 17.828C17.8246 17.5718 17.4434 17.1522 17.2431 16.5618C16.9512 15.7054 16.6737 14.8441 16.3311 14.0073C16.1791 13.6389 16.0054 13.2827 15.8316 12.9265C15.53 12.3068 15.0426 11.8554 14.5191 11.4382C14.2754 11.2454 14.0462 11.0356 13.8507 10.7892C13.5829 10.4501 13.525 10.0743 13.6505 9.66446C13.8073 9.14234 14.0992 8.69586 14.4129 8.26158C14.7338 7.81753 15.0354 7.36129 15.2067 6.8343C15.2912 6.57812 15.3467 6.31706 15.3032 6.0438C15.2236 5.53877 14.8979 5.25087 14.3912 5.21671C13.9448 5.18744 13.5274 5.29235 13.1317 5.48509C12.4296 5.82422 11.8433 6.31462 11.38 6.94409C10.8781 7.62235 10.7768 8.38845 10.9385 9.20334C10.9819 9.41804 11.0301 9.63274 11.0712 9.84744C11.1508 10.2671 11.0519 10.6453 10.8082 10.9868C10.591 11.2918 10.328 11.5553 10.0626 11.8139C9.76825 12.1043 9.48353 12.4019 9.28568 12.7703C9.0444 13.2192 8.92859 13.7072 8.85138 14.2074C8.7235 15.0296 8.69696 15.8567 8.66801 16.6862C8.63423 17.667 8.45568 18.6209 8.15891 19.5554C7.97553 20.1361 7.81146 20.7216 7.75838 21.334C7.7053 21.961 7.72219 22.5832 7.82352 23.2053C7.93451 23.8836 8.14925 24.5374 8.29885 25.2059C8.46774 25.955 8.56667 26.7162 8.63423 27.4823C8.69213 28.1434 8.72591 28.8046 8.7235 29.4683C8.71626 30.7296 8.5715 31.9715 8.28678 33.2011C8.21923 33.4939 8.16373 33.7891 8.05515 34.0697C7.96829 34.2966 7.96588 34.2966 7.77768 34.1575C4.85577 31.9934 2.71803 29.2145 1.39822 25.8013C0.896359 24.5033 0.556153 23.159 0.363128 21.778C0.191819 20.5508 0.138737 19.3163 0.21836 18.0793C0.454815 14.4269 1.64192 11.121 3.81103 8.19082C6.0477 5.17036 8.93583 3.03066 12.444 1.74977C13.6456 1.3106 14.881 1.01051 16.1453 0.832405C17.0043 0.720175 17.8656 0.661619 18.7342 0.65918Z" fill="#F04635"/>
<path d="M16.0899 28.846C16.0899 27.8091 16.0779 26.7722 16.0923 25.7353C16.1068 24.7399 16.1599 23.7444 16.377 22.7685C16.4615 22.3879 16.5797 22.0171 16.7583 21.6682C17.1033 20.9924 17.6534 20.6044 18.399 20.5825C19.6126 20.5459 20.7539 20.8289 21.7528 21.5584C22.4235 22.0463 22.8048 22.7392 23.0364 23.5273C23.2053 24.1055 23.2825 24.7033 23.3718 25.2961C23.4803 26.0232 23.5889 26.7503 23.6975 27.4773C23.8374 28.424 23.9774 29.373 24.1004 30.3246C24.2042 31.1224 24.3031 31.9202 24.3779 32.7204C24.4624 33.5988 24.5347 34.4771 24.5058 35.3603C24.4985 35.5848 24.4744 35.8068 24.431 36.0264C24.3634 36.3631 24.1415 36.5875 23.8905 36.7925C23.5045 37.1072 23.0557 37.256 22.5755 37.3536C21.2316 37.6244 19.8756 37.7903 18.5051 37.7415C17.721 37.7123 17.1129 37.3292 16.7655 36.59C16.5218 36.0703 16.4132 35.5116 16.3312 34.948C16.143 33.6329 16.1189 32.3081 16.1068 30.9833C16.0996 30.2709 16.1068 29.5609 16.1068 28.8485C16.0996 28.846 16.0947 28.846 16.0899 28.846Z" fill="#F04635"/>
<path d="M26.646 30.1441C26.6556 29.6757 26.6605 29.0657 26.8463 28.4753C26.8776 28.3777 26.9162 28.285 26.9669 28.1972C27.1068 27.9678 27.3023 27.8922 27.5532 27.9776C27.7414 28.041 27.8934 28.1581 28.0334 28.2948C28.4749 28.7217 28.7958 29.2365 29.0878 29.7708C29.5751 30.6614 29.9757 31.5885 30.2411 32.5742C30.3497 32.9816 30.3328 33.3671 30.1566 33.7477C30.1277 33.8087 30.0915 33.855 30.0384 33.8965C29.4424 34.3552 28.8248 34.7773 28.1781 35.1579C27.9127 35.3165 27.6401 35.2408 27.4977 34.9652C27.2154 34.4162 27.0658 33.8209 26.9428 33.2207C26.7497 32.2545 26.6484 31.2737 26.646 30.1441Z" fill="#EF4636"/>
<path d="M13.2645 34.3673C13.2573 34.9748 13.2597 35.6019 13.098 36.2142C13.0498 36.3948 12.9822 36.568 12.8616 36.7144C12.823 36.7608 12.7892 36.773 12.7265 36.7534C12.42 36.6461 12.1136 36.5314 11.812 36.4143C11.7469 36.3899 11.7203 36.3411 11.6938 36.285C11.4766 35.8312 11.3656 35.3432 11.2884 34.8504C11.0833 33.5573 11.0568 32.2545 11.1099 30.9492C11.1388 30.1928 11.204 29.4414 11.3584 28.6997C11.4211 28.402 11.4935 28.1044 11.6407 27.836C11.7155 27.6994 11.7975 27.5554 11.9761 27.5554C12.1474 27.5554 12.2342 27.692 12.309 27.8238C12.5334 28.2166 12.6372 28.6509 12.7313 29.0876C12.9147 29.922 13.0184 30.7662 13.1029 31.6152C13.1921 32.5228 13.2428 33.4353 13.2645 34.3673Z" fill="#EF4636"/>
</svg>
